<svg width="73" height="100" viewBox="0 0 73 100" fill="none" xmlns="http://www.w3.org/2000/svg">
<path d="M64.754 11.4754H58.1966C58.1966 8.75945 55.9946 6.55738 53.2786 6.55738H48.3606V4.91803C48.3606 2.20207 46.1585 0 43.4425 0H30.3278C27.6118 0 25.4097 2.20207 25.4097 4.91803V6.55738H20.4917C17.7757 6.55738 15.5737 8.75945 15.5737 11.4754H9.0163C4.4913 11.481 0.825183 15.1471 0.81958 19.6721V44.2623C0.81958 45.1676 1.5536 45.9016 2.45892 45.9016C3.36425 45.9016 4.09827 45.1676 4.09827 44.2623V19.6721C4.09827 16.9562 6.30034 14.7541 9.0163 14.7541H15.5737V18.0328H9.0163C8.11098 18.0328 7.37696 18.7668 7.37696 19.6721V91.8033C7.37696 92.7086 8.11098 93.4426 9.0163 93.4426H64.754C65.6593 93.4426 66.3934 92.7086 66.3934 91.8033V19.6721C66.3934 18.7668 65.6593 18.0328 64.754 18.0328H58.1966V14.7541H64.754C67.47 14.7541 69.672 16.9562 69.672 19.6721V91.8033C69.672 94.5192 67.47 96.7213 64.754 96.7213H9.0163C6.30034 96.7213 4.09827 94.5192 4.09827 91.8033V72.1311C4.09827 71.2258 3.36425 70.4918 2.45892 70.4918C1.5536 70.4918 0.81958 71.2258 0.81958 72.1311V91.8033C0.825183 96.3283 4.4913 99.9944 9.0163 100H64.754C69.279 99.9944 72.9451 96.3283 72.9507 91.8033V19.6721C72.9451 15.1471 69.279 11.481 64.754 11.4754ZM28.6884 4.91803C28.6884 4.01271 29.4225 3.27869 30.3278 3.27869H43.4425C44.3479 3.27869 45.0819 4.01271 45.0819 4.91803V6.55738H28.6884V4.91803ZM63.1147 21.3115V90.1639H10.6556V21.3115H15.5737C15.5737 24.0274 17.7757 26.2295 20.4917 26.2295H40.1638C41.0692 26.2295 41.8032 25.4955 41.8032 24.5902C41.8032 23.6848 41.0692 22.9508 40.1638 22.9508H20.4917C19.5864 22.9508 18.8524 22.2168 18.8524 21.3115V11.4754C18.8524 10.5701 19.5864 9.83607 20.4917 9.83607H53.2786C54.1839 9.83607 54.9179 10.5701 54.9179 11.4754V21.3115C54.9179 22.2168 54.1839 22.9508 53.2786 22.9508C52.3733 22.9508 51.6393 23.6848 51.6393 24.5902C51.6393 25.4955 52.3733 26.2295 53.2786 26.2295C55.9946 26.2295 58.1966 24.0274 58.1966 21.3115H63.1147Z" fill="#FFFEFE"/>
</svg>
